<?xml version="1.0" encoding="UTF-8" standalone="no"?>
<!-- Uploaded to: SVG Repo, www.svgrepo.com, Generator: SVG Repo Mixer Tools -->

<svg
   width="800px"
   height="800px"
   viewBox="0 0 128 128"
   aria-hidden="true"
   role="img"
   class="iconify iconify--noto"
   preserveAspectRatio="xMidYMid meet"
   version="1.1"
   id="svg6"
   sodipodi:docname="droplet.svg"
   inkscape:export-filename="droplet.png"
   inkscape:export-xdpi="96"
   inkscape:export-ydpi="96"
   inkscape:version="1.2.2 (b0a8486541, 2022-12-01)"
   xmlns:inkscape="http://www.inkscape.org/namespaces/inkscape"
   xmlns:sodipodi="http://sodipodi.sourceforge.net/DTD/sodipodi-0.dtd"
   xmlns="http://www.w3.org/2000/svg"
   xmlns:svg="http://www.w3.org/2000/svg">
  <defs
     id="defs10" />
  <sodipodi:namedview
     id="namedview8"
     pagecolor="#ffffff"
     bordercolor="#666666"
     borderopacity="1.0"
     inkscape:showpageshadow="2"
     inkscape:pageopacity="0.0"
     inkscape:pagecheckerboard="0"
     inkscape:deskcolor="#d1d1d1"
     showgrid="false"
     inkscape:zoom="0.99"
     inkscape:cx="269.19192"
     inkscape:cy="400"
     inkscape:window-width="1920"
     inkscape:window-height="992"
     inkscape:window-x="0"
     inkscape:window-y="0"
     inkscape:window-maximized="1"
     inkscape:current-layer="svg6" />
  <path
     d="M63.38 4.07c-4.22.09-5.44 4.69-6.95 8.45s-10.5 24.21-16.32 34.53s-13.7 23.84-12.58 43.17c1.13 19.33 16.14 33.76 37.17 33.6c19.01-.14 35.64-11.1 36.32-34.91c.56-19.71-10.28-36.74-15.63-47.16c-3.18-6.2-13.59-26.95-14.69-29.52c-1.97-4.6-2.81-8.26-7.32-8.16z"
     fill="#4ec1f5"
     id="path2" />
  <path
     d="M47.38 64.42c-2.96.13-10 9.29-10 20.84s5.45 20.08 11.4 18.86c6.9-1.41 5.77-8.45 4.36-14.08c-1.21-4.84-3.1-10.56-3.52-15.77c-.26-3.37.86-9.99-2.24-9.85z"
     fill="#b3e2fb"
     id="path4" />
</svg>
