<?xml version="1.0" encoding="UTF-8" standalone="no"?>
<!-- Uploaded to: SVG Repo, www.svgrepo.com, Generator: SVG Repo Mixer Tools -->

<svg
   height="800px"
   width="800px"
   version="1.1"
   id="Layer_1"
   viewBox="0 0 299.636 299.636"
   xml:space="preserve"
   sodipodi:docname="thermometer.svg"
   inkscape:export-filename="thermometer.png"
   inkscape:export-xdpi="96"
   inkscape:export-ydpi="96"
   inkscape:version="1.2.2 (b0a8486541, 2022-12-01)"
   xmlns:inkscape="http://www.inkscape.org/namespaces/inkscape"
   xmlns:sodipodi="http://sodipodi.sourceforge.net/DTD/sodipodi-0.dtd"
   xmlns="http://www.w3.org/2000/svg"
   xmlns:svg="http://www.w3.org/2000/svg"><defs
   id="defs15" /><sodipodi:namedview
   id="namedview13"
   pagecolor="#ffffff"
   bordercolor="#666666"
   borderopacity="1.0"
   inkscape:showpageshadow="2"
   inkscape:pageopacity="0.0"
   inkscape:pagecheckerboard="0"
   inkscape:deskcolor="#d1d1d1"
   showgrid="false"
   inkscape:zoom="0.99"
   inkscape:cx="269.19192"
   inkscape:cy="400"
   inkscape:window-width="1920"
   inkscape:window-height="992"
   inkscape:window-x="0"
   inkscape:window-y="0"
   inkscape:window-maximized="1"
   inkscape:current-layer="Layer_1" />
<g
   id="g10">
	<path
   style="fill:#E4E7E7;"
   d="M173.227,166.308V46.818C173.227,20.965,152.27,0,126.408,0S79.59,20.965,79.59,46.818v119.489   c-17.107,13.728-28.091,34.777-28.091,58.42c0,41.369,33.541,74.909,74.909,74.909s74.909-33.541,74.909-74.909   C201.317,201.093,190.335,180.035,173.227,166.308z"
   id="path2" />
	<path
   style="fill:#E4E7E7;"
   d="M201.317,65.545h37.455c5.178,0,9.364-4.186,9.364-9.364s-4.186-9.364-9.364-9.364h-37.455   c-5.178,0-9.364,4.186-9.364,9.364S196.139,65.545,201.317,65.545z M238.772,84.273h-37.455c-5.178,0-9.364,4.195-9.364,9.364   c0,5.178,4.186,9.364,9.364,9.364h37.455c5.178,0,9.364-4.186,9.364-9.364C248.135,88.477,243.951,84.273,238.772,84.273z    M238.772,121.727h-37.455c-5.178,0-9.364,4.195-9.364,9.364c0,5.178,4.186,9.364,9.364,9.364h37.455   c5.178,0,9.364-4.186,9.364-9.364C248.135,125.932,243.951,121.727,238.772,121.727z"
   id="path4" />
	<path
   style="fill:#CB4E44;"
   d="M154.499,176.13V46.818c0-15.516-12.585-28.091-28.091-28.091S98.317,31.303,98.317,46.818V176.13   c-16.77,9.719-28.091,27.819-28.091,48.597c0,31.022,25.16,56.182,56.182,56.182s56.182-25.16,56.182-56.182   C182.59,203.949,171.279,185.849,154.499,176.13z"
   id="path6" />
	<path
   style="fill:#FFFFFF;"
   d="M154.499,176.13V46.818c0-15.516-12.585-28.091-28.091-28.091S98.317,31.303,98.317,46.818V176.13   c-16.77,9.719-28.091,27.819-28.091,48.597c0,31.022,25.16,56.182,56.182,56.182s56.182-25.16,56.182-56.182   C182.59,203.949,171.279,185.849,154.499,176.13z M126.408,266.864c-23.231,0-42.136-18.905-42.136-42.136   c0-14.944,8.081-28.915,21.087-36.453l7.004-4.054V46.818c0-7.744,6.302-14.045,14.045-14.045s14.045,6.302,14.045,14.045V184.22   l7.004,4.064c13.006,7.538,21.087,21.499,21.087,36.453C168.544,247.968,149.639,266.864,126.408,266.864z"
   id="path8" />
</g>
</svg>
