<?xml version="1.0" encoding="utf-8"?>
<!-- Generator: Adobe Illustrator 16.0.0, SVG Export Plug-In . SVG Version: 6.00 Build 0)  -->
<!DOCTYPE svg PUBLIC "-//W3C//DTD SVG 1.1//EN" "http://www.w3.org/Graphics/SVG/1.1/DTD/svg11.dtd">
<svg xmlns="http://www.w3.org/2000/svg" xmlns:xlink="http://www.w3.org/1999/xlink" version="1.1" id="Capa_1" x="0px" y="0px" width="24px" height="24px" viewBox="0 0 24 24" style="enable-background:new 0 0 24 24;" xml:space="preserve">

<rect y="0" class="st1" width="24" height="24" style="fill:none;;"/>
<path id="582244930_shock_x5F_color" class="stshockcolor" d="M22,13h-4v-2h4V13z M14,10c-1.1,0-2,0.9-2,2c0,0.28,0.06,0.54,0.16,0.78c0,0,0,0,0,0.01  l-0.92,1.229L8.92,8.61C8.77,8.27,8.46,8.04,8.09,8C7.72,7.97,7.37,8.14,7.17,8.45L5.46,11H2v2h4c0.33,0,0.65-0.17,0.83-0.45  l0.98-1.46l2.27,5.3c0.14,0.33,0.45,0.561,0.8,0.601C10.92,17,10.96,17,11,17c0.31,0,0.61-0.15,0.8-0.4l1.96-2.619  C13.84,14,13.92,14,14,14c1.1,0,2-0.9,2-2C16,10.9,15.1,10,14,10z" style="fill:#1E88E5;;"/>
</svg>
