<?xml version="1.0" encoding="utf-8"?>
<!-- Generator: Adobe Illustrator 16.0.0, SVG Export Plug-In . SVG Version: 6.00 Build 0)  -->
<!DOCTYPE svg PUBLIC "-//W3C//DTD SVG 1.1//EN" "http://www.w3.org/Graphics/SVG/1.1/DTD/svg11.dtd">
<svg xmlns="http://www.w3.org/2000/svg" xmlns:xlink="http://www.w3.org/1999/xlink" version="1.1" id="Capa_1" x="0px" y="0px" width="24px" height="24px" viewBox="0 0 24 24" style="enable-background:new 0 0 24 24;" xml:space="preserve">

<rect class="st2" width="24" height="24" style="fill:none;;"/>
<path id="582244941_shock_x5F_color" class="stshockcolor" d="M22,3v13c0,0,0,1-1,1h-1v4h-4v-4h-2v4h-4v-4H8v4H4v-4H3c0,0-1,0-1-1V3c0,0,0-1,1-1h18  C21,2,22,2,22,3z" style="fill:#AB47BC;;"/>
<path class="st1" d="M2,6v10c0,1,1,1,1,1h18c1,0,1-1,1-1V6H2z M14,15h-4v-4h4V15z M20,15h-4v-4h4V15z" style="opacity:0.6;fill:#FFFFFF;;"/>
<circle class="st3" cx="20" cy="4" r="1" style="opacity:0.4;fill:#FFFFFF;;"/>
<path class="st1" d="M16,4c0-0.552,0.447-1,1-1s1,0.448,1,1s-0.447,1-1,1S16,4.552,16,4z M14,5c0.553,0,1-0.448,1-1s-0.447-1-1-1  s-1,0.448-1,1S13.447,5,14,5z" style="opacity:0.6;fill:#FFFFFF;;"/>
</svg>
