<?xml version="1.0" encoding="utf-8"?>
<!-- Generator: Adobe Illustrator 16.0.0, SVG Export Plug-In . SVG Version: 6.00 Build 0)  -->
<svg xmlns="http://www.w3.org/2000/svg" xmlns:xlink="http://www.w3.org/1999/xlink" version="1.1" id="58185508_Capa_1_grid" x="0px" y="0px" width="24px" height="24px" viewBox="0 0 24 24" style="enable-background:new 0 0 24 24;" xml:space="preserve">

<path id="58185508_shock_x5F_color_grid" class="stshockcolor" d="M16,16v4h4v-4H16z M16,10v4h4v-4H16z M10,4v4h4V4H10z M16,4v4h4V4H16z M10,10v4h4v-4H10z   M4,10v4h4v-4H4z M4,16v4h4v-4H4z M10,16v4h4v-4H10z M4,4v4h4V4H4z" style="fill:#D81B60;;"/>
<path class="st1" d="M10,14h4v-4h-4V14z M16,14h4v-4h-4V14z" style="opacity:0.4;fill:#FFFFFF;;"/>
<path class="st0" d="M4,16h4v4H4V16z M10,20h4v-4h-4V20z M16,16v4h4v-4H16z" style="opacity:0.2;fill:#FFFFFF;;"/>
</svg>
