<?xml version="1.0" encoding="utf-8"?>
<!-- Generator: Adobe Illustrator 16.0.0, SVG Export Plug-In . SVG Version: 6.00 Build 0)  -->
<svg xmlns="http://www.w3.org/2000/svg" xmlns:xlink="http://www.w3.org/1999/xlink" version="1.1" id="582145155_Capa_1_grid" x="0px" y="0px" width="24px" height="24px" viewBox="0 0 24 24" style="enable-background:new 0 0 24 24;" xml:space="preserve">

<rect class="st1" width="24" height="24" style="fill:none;;"/>
<path id="582145155_shock_x5F_color_grid" class="stshockcolor" d="M6,17c0,1.104-0.896,2-2,2l0,0c-1.104,0-2-0.896-2-2v-7c0-1.104,0.896-2,2-2l0,0  c1.104,0,2,0.896,2,2V17z M12,4c0-1.104-0.896-2-2-2l0,0C8.896,2,8,2.896,8,4v6c0,1.104,0.896,2,2,2l0,0c1.104,0,2-0.896,2-2V4z   M22,13c0-1.104-0.896-2-2-2l0,0c-1.104,0-2,0.896-2,2v7c0,1.104,0.896,2,2,2l0,0c1.104,0,2-0.896,2-2V13z M14,16  c0-1.104-0.896-2-2-2l0,0c-1.104,0-2,0.896-2,2v4c0,1.104,0.896,2,2,2l0,0c1.104,0,2-0.896,2-2V16z M18,5c0-1.104-0.896-2-2-2l0,0  c-1.104,0-2,0.896-2,2v4c0,1.104,0.896,2,2,2l0,0c1.104,0,2-0.896,2-2V5z" style="fill:#7CB342;;"/>
<path class="st2" d="M6,17c0,1.104-0.896,2-2,2l0,0c-1.104,0-2-0.896-2-2v-7c0-1.104,0.896-2,2-2l0,0c1.104,0,2,0.896,2,2V17z   M14,16c0-1.104-0.896-2-2-2l0,0c-1.104,0-2,0.896-2,2v4c0,1.104,0.896,2,2,2l0,0c1.104,0,2-0.896,2-2V16z M18,5  c0-1.104-0.896-2-2-2l0,0c-1.104,0-2,0.896-2,2v4c0,1.104,0.896,2,2,2l0,0c1.104,0,2-0.896,2-2V5z" style="opacity:0.4;fill:#FFFFFF;;"/>
</svg>
