<?xml version="1.0" encoding="UTF-8" standalone="no"?>
<svg
   xmlns:dc="http://purl.org/dc/elements/1.1/"
   xmlns:cc="http://creativecommons.org/ns#"
   xmlns:rdf="http://www.w3.org/1999/02/22-rdf-syntax-ns#"
   xmlns:svg="http://www.w3.org/2000/svg"
   xmlns="http://www.w3.org/2000/svg"
   xmlns:sodipodi="http://sodipodi.sourceforge.net/DTD/sodipodi-0.dtd"
   xmlns:inkscape="http://www.inkscape.org/namespaces/inkscape"
   viewBox="0 0 576 576"
   version="1.1"
   id="svg4"
   sodipodi:docname="folder-tree.svg"
   width="576"
   height="576"
   inkscape:version="1.0.1 (1.0.1+r75)"
   inkscape:export-filename="/yuneta/development/yuneta/^yuneta/yuno_gui/code/app/images/yuneta/folder-tree.png"
   inkscape:export-xdpi="5.3333335"
   inkscape:export-ydpi="5.3333335">
  <metadata
     id="metadata10">
    <rdf:RDF>
      <cc:Work
         rdf:about="">
        <dc:format>image/svg+xml</dc:format>
        <dc:type
           rdf:resource="http://purl.org/dc/dcmitype/StillImage" />
        <dc:title />
      </cc:Work>
    </rdf:RDF>
  </metadata>
  <defs
     id="defs8" />
  <sodipodi:namedview
     pagecolor="#ffffff"
     bordercolor="#666666"
     borderopacity="1"
     objecttolerance="10"
     gridtolerance="10"
     guidetolerance="10"
     inkscape:pageopacity="0"
     inkscape:pageshadow="2"
     inkscape:window-width="1920"
     inkscape:window-height="991"
     id="namedview6"
     showgrid="false"
     inkscape:zoom="0.67117414"
     inkscape:cx="288"
     inkscape:cy="256"
     inkscape:window-x="0"
     inkscape:window-y="0"
     inkscape:window-maximized="1"
     inkscape:current-layer="svg4"
     inkscape:document-rotation="0" />
  <path
     d="M 508.84248,82.247024 H 414.49991 L 387.54489,51.655993 H 320.15733 A 26.95502,30.591035 0 0 0 293.20232,82.247024 V 235.2022 a 26.95502,30.591035 0 0 0 26.95501,30.59104 H 508.84248 A 26.95502,30.591035 0 0 0 535.7975,235.2022 V 112.83806 A 26.95502,30.591035 0 0 0 508.84248,82.247024 Z m 0,275.319326 h -94.34257 l -26.95502,-30.59103 h -67.38756 a 26.95502,30.591035 0 0 0 -26.95501,30.59103 v 152.95517 a 26.95502,30.591035 0 0 0 26.95501,30.59104 H 508.84248 A 26.95502,30.591035 0 0 0 535.7975,510.52152 V 388.15738 A 26.95502,30.591035 0 0 0 508.84248,357.56635 Z M 104.51718,66.951511 A 13.477511,15.295517 0 0 0 91.039667,51.655993 H 64.084647 A 13.477511,15.295517 0 0 0 50.607136,66.951511 V 449.33945 a 26.95502,30.591035 0 0 0 26.95502,30.59103 H 266.24729 V 418.74841 H 104.51718 V 204.61117 H 266.24729 V 143.42911 H 104.51718 Z"
     id="path2"
     style="stroke-width:0.897361;fill:#3883fa;fill-opacity:1" />
</svg>
