<?xml version="1.0" encoding="utf-8"?>
<!-- Generator: Adobe Illustrator 16.0.0, SVG Export Plug-In . SVG Version: 6.00 Build 0)  -->
<svg xmlns="http://www.w3.org/2000/svg" xmlns:xlink="http://www.w3.org/1999/xlink" version="1.1" id="58744620_Capa_1_grid" x="0px" y="0px" width="24px" height="24px" viewBox="0 0 24 24" style="enable-background:new 0 0 24 24;" xml:space="preserve">

<rect class="st1" width="24" height="24" style="fill:none;;"/>
<circle id="58744620_shock_x5F_color_grid" class="stshockcolor" cx="12" cy="12" r="10" style="fill:#37474F;;"/>
<path class="st0" d="M18,11l1.77-5.3C18.7,4.4,17.32,3.36,15.74,2.73L12,6L8.26,2.73C6.68,3.36,5.3,4.4,4.23,5.7L6,11l-3.98,1.59  c0.11,1.84,0.71,3.55,1.68,4.99L8,17v4.16C9.22,21.7,10.58,22,12,22c1.3,0,2.55-0.25,3.69-0.71v-3.71H20.3  c0.97-1.44,1.57-3.15,1.681-4.99L18,11z M14,16h-4l-2-4l4-3.5l4,3.5L14,16z" style="opacity:0.8;fill:#FFFFFF;;"/>
</svg>
