<?xml version="1.0" encoding="UTF-8" standalone="no"?>
<svg
   xmlns:dc="http://purl.org/dc/elements/1.1/"
   xmlns:cc="http://creativecommons.org/ns#"
   xmlns:rdf="http://www.w3.org/1999/02/22-rdf-syntax-ns#"
   xmlns:svg="http://www.w3.org/2000/svg"
   xmlns="http://www.w3.org/2000/svg"
   xmlns:sodipodi="http://sodipodi.sourceforge.net/DTD/sodipodi-0.dtd"
   xmlns:inkscape="http://www.inkscape.org/namespaces/inkscape"
   version="1.1"
   id="Capa_1"
   x="0px"
   y="0px"
   width="24px"
   height="24px"
   viewBox="0 0 24 24"
   style="enable-background:new 0 0 24 24;"
   xml:space="preserve"
   sodipodi:docname="instance_unique.svg"
   inkscape:version="1.0 (1.0+r73+1)"><metadata
   id="metadata12"><rdf:RDF><cc:Work
       rdf:about=""><dc:format>image/svg+xml</dc:format><dc:type
         rdf:resource="http://purl.org/dc/dcmitype/StillImage" /></cc:Work></rdf:RDF></metadata><defs
   id="defs10" /><sodipodi:namedview
   inkscape:document-rotation="0"
   pagecolor="#ffffff"
   bordercolor="#666666"
   borderopacity="1"
   objecttolerance="10"
   gridtolerance="10"
   guidetolerance="10"
   inkscape:pageopacity="0"
   inkscape:pageshadow="2"
   inkscape:window-width="1920"
   inkscape:window-height="991"
   id="namedview8"
   showgrid="false"
   inkscape:zoom="34.708333"
   inkscape:cx="12"
   inkscape:cy="12"
   inkscape:window-x="0"
   inkscape:window-y="0"
   inkscape:window-maximized="1"
   inkscape:current-layer="Capa_1" />

<path
   class="st2"
   d="M0,0h24v24H0V0z"
   style="fill:none;;"
   id="path2" />
<polygon
   id="58545665_shock_x5F_color"
   class="stshockcolor"
   points="20,15.311 23.311,12 20,8.69 20,4 15.311,4 12,0.69 8.69,4 4,4 4,8.69 0.69,12   4,15.311 4,20 8.69,20 12,23.311 15.311,20 20,20 "
   style="fill:#b5cc86;fill-opacity:1"
   inkscape:export-xdpi="135.8"
   inkscape:export-ydpi="135.8" />
<path
   class="st0"
   d="M12,18c-3.31,0-6-2.689-6-6c0-3.31,2.69-6,6-6c3.311,0,6,2.69,6,6C18,15.311,15.311,18,12,18z"
   style="opacity:0.6;fill:#FFFFFF;;"
   id="path5" />
</svg>
