<?xml version="1.0" encoding="UTF-8" standalone="no"?>
<svg
   xmlns:dc="http://purl.org/dc/elements/1.1/"
   xmlns:cc="http://creativecommons.org/ns#"
   xmlns:rdf="http://www.w3.org/1999/02/22-rdf-syntax-ns#"
   xmlns:svg="http://www.w3.org/2000/svg"
   xmlns="http://www.w3.org/2000/svg"
   xmlns:sodipodi="http://sodipodi.sourceforge.net/DTD/sodipodi-0.dtd"
   xmlns:inkscape="http://www.inkscape.org/namespaces/inkscape"
   inkscape:version="1.0 (1.0+r73+1)"
   sodipodi:docname="instance_tracing.svg"
   xml:space="preserve"
   style="enable-background:new 0 0 24 24;"
   viewBox="0 0 24 24"
   height="24px"
   width="24px"
   y="0px"
   x="0px"
   id="Capa_1"
   version="1.1"><metadata
   id="metadata12"><rdf:RDF><cc:Work
       rdf:about=""><dc:format>image/svg+xml</dc:format><dc:type
         rdf:resource="http://purl.org/dc/dcmitype/StillImage" /></cc:Work></rdf:RDF></metadata><defs
   id="defs10" /><sodipodi:namedview
   inkscape:current-layer="Capa_1"
   inkscape:window-maximized="1"
   inkscape:window-y="0"
   inkscape:window-x="0"
   inkscape:cy="12"
   inkscape:cx="12"
   inkscape:zoom="34.708333"
   showgrid="false"
   id="namedview8"
   inkscape:window-height="991"
   inkscape:window-width="1920"
   inkscape:pageshadow="2"
   inkscape:pageopacity="0"
   guidetolerance="10"
   gridtolerance="10"
   objecttolerance="10"
   borderopacity="1"
   bordercolor="#666666"
   pagecolor="#ffffff" />

<rect
   id="rect2"
   style="fill:none;;"
   height="24"
   width="24"
   class="st1" />
<path
   inkscape:export-ydpi="153.58"
   inkscape:export-xdpi="153.58"
   style="fill:#e63d0a;fill-opacity:1"
   d="M21.71,12.04L13.75,20H2v-2h8v-1.76l7.96-7.95c0.39-0.39,1.021-0.39,1.41,0l2.34,2.34  C22.1,11.02,22.1,11.65,21.71,12.04z M2,10v2h10v-2H2z M5,6v2h10V6H5z M2,2v2h18V2H2z M4,14v2h4v-2H4z"
   class="stshockcolor"
   id="584346056_shock_x5F_color" />
<path
   id="path5"
   style="opacity:0.4;fill:#FFFFFF;;"
   d="M20.878,12.875l-1.134,1.148l-3.748-3.752l1.132-1.146L20.878,12.875z M10,20h3.748L10,16.242V20z"
   class="st2" />
</svg>
