<?xml version="1.0" encoding="utf-8"?>
<!-- Generator: Adobe Illustrator 16.0.0, SVG Export Plug-In . SVG Version: 6.00 Build 0)  -->
<!DOCTYPE svg PUBLIC "-//W3C//DTD SVG 1.1//EN" "http://www.w3.org/Graphics/SVG/1.1/DTD/svg11.dtd">
<svg xmlns="http://www.w3.org/2000/svg" xmlns:xlink="http://www.w3.org/1999/xlink" version="1.1" id="Capa_1" x="0px" y="0px" width="24px" height="24px" viewBox="0 0 24 24" style="enable-background:new 0 0 24 24;" xml:space="preserve">

<path class="st2" d="M0,0h24v24H0V0z" style="fill:none;;"/>
<polygon id="58545665_shock_x5F_color" class="stshockcolor" points="20,15.311 23.311,12 20,8.69 20,4 15.311,4 12,0.69 8.69,4 4,4 4,8.69 0.69,12   4,15.311 4,20 8.69,20 12,23.311 15.311,20 20,20 " style="fill:#FDD835;;"/>
<path class="st0" d="M12,18c-3.31,0-6-2.689-6-6c0-3.31,2.69-6,6-6c3.311,0,6,2.69,6,6C18,15.311,15.311,18,12,18z" style="opacity:0.6;fill:#FFFFFF;;"/>
</svg>
