<?xml version="1.0" encoding="UTF-8" standalone="no"?>
<svg
   xmlns:dc="http://purl.org/dc/elements/1.1/"
   xmlns:cc="http://creativecommons.org/ns#"
   xmlns:rdf="http://www.w3.org/1999/02/22-rdf-syntax-ns#"
   xmlns:svg="http://www.w3.org/2000/svg"
   xmlns="http://www.w3.org/2000/svg"
   xmlns:sodipodi="http://sodipodi.sourceforge.net/DTD/sodipodi-0.dtd"
   xmlns:inkscape="http://www.inkscape.org/namespaces/inkscape"
   viewBox="0 0 448 448"
   version="1.1"
   id="svg4"
   sodipodi:docname="minus-square.svg"
   width="448"
   height="448"
   inkscape:version="1.0.1 (1.0.1+r75)"
   inkscape:export-filename="/yuneta/development/yuneta/^yuneta/yuno_gui/code/app/images/yuneta/minus-square.png"
   inkscape:export-xdpi="6.8571429"
   inkscape:export-ydpi="6.8571429">
  <metadata
     id="metadata10">
    <rdf:RDF>
      <cc:Work
         rdf:about="">
        <dc:format>image/svg+xml</dc:format>
        <dc:type
           rdf:resource="http://purl.org/dc/dcmitype/StillImage" />
        <dc:title></dc:title>
      </cc:Work>
    </rdf:RDF>
  </metadata>
  <defs
     id="defs8" />
  <sodipodi:namedview
     pagecolor="#ffffff"
     bordercolor="#666666"
     borderopacity="1"
     objecttolerance="10"
     gridtolerance="10"
     guidetolerance="10"
     inkscape:pageopacity="0"
     inkscape:pageshadow="2"
     inkscape:window-width="1920"
     inkscape:window-height="991"
     id="namedview6"
     showgrid="false"
     fit-margin-top="0"
     fit-margin-left="0"
     fit-margin-right="0"
     fit-margin-bottom="0"
     inkscape:zoom="1.5563819"
     inkscape:cx="224"
     inkscape:cy="224"
     inkscape:window-x="0"
     inkscape:window-y="0"
     inkscape:window-maximized="1"
     inkscape:current-layer="svg4" />
  <path
     d="m 120.63393,250.8125 c -5.96652,0 -10.84821,-4.88169 -10.84821,-10.84821 v -28.92857 c 0,-5.96652 4.88169,-10.84823 10.84821,-10.84823 h 209.73215 c 5.96652,0 10.84821,4.88171 10.84821,10.84823 v 28.92857 c 0,5.96652 -4.88169,10.84821 -10.84821,10.84821 z M 428,66.392858 V 384.60715 c 0,23.95648 -19.43638,43.39286 -43.39285,43.39286 H 66.392858 C 42.436384,428.00001 23,408.56363 23,384.60715 V 66.392858 C 23,42.436384 42.436384,23 66.392858,23 H 384.60715 C 408.56362,23 428,42.436384 428,66.392858 Z M 384.60715,379.18304 V 71.816966 c 0,-2.98326 -2.44085,-5.424108 -5.42411,-5.424108 H 71.816965 c -2.98326,0 -5.424107,2.440848 -5.424107,5.424108 V 379.18304 c 0,2.98326 2.440847,5.42411 5.424107,5.42411 H 379.18304 c 2.98326,0 5.42411,-2.44085 5.42411,-5.42411 z"
     id="path2"
     style="stroke-width:0.904017" />
</svg>
