<?xml version="1.0" encoding="UTF-8" standalone="no"?>
<svg
   xmlns:dc="http://purl.org/dc/elements/1.1/"
   xmlns:cc="http://creativecommons.org/ns#"
   xmlns:rdf="http://www.w3.org/1999/02/22-rdf-syntax-ns#"
   xmlns:svg="http://www.w3.org/2000/svg"
   xmlns="http://www.w3.org/2000/svg"
   xmlns:sodipodi="http://sodipodi.sourceforge.net/DTD/sodipodi-0.dtd"
   xmlns:inkscape="http://www.inkscape.org/namespaces/inkscape"
   version="1.1"
   id="Capa_1"
   x="0px"
   y="0px"
   viewBox="0 0 512.019 512.019"
   style="enable-background:new 0 0 512.019 512.019;"
   xml:space="preserve"
   sodipodi:docname="pin-push.svg"
   inkscape:export-filename="/yuneta/development/projects/^fichador/fichador-web/fichador2/code/app/images/yuneta/pin-push.png"
   inkscape:export-xdpi="6"
   inkscape:export-ydpi="6"
   inkscape:version="1.0.1 (1.0.1+r73)"><metadata
   id="metadata47"><rdf:RDF><cc:Work
       rdf:about=""><dc:format>image/svg+xml</dc:format><dc:type
         rdf:resource="http://purl.org/dc/dcmitype/StillImage" /></cc:Work></rdf:RDF></metadata><defs
   id="defs45" /><sodipodi:namedview
   pagecolor="#ffffff"
   bordercolor="#666666"
   borderopacity="1"
   objecttolerance="10"
   gridtolerance="10"
   guidetolerance="10"
   inkscape:pageopacity="0"
   inkscape:pageshadow="2"
   inkscape:window-width="1920"
   inkscape:window-height="991"
   id="namedview43"
   showgrid="false"
   inkscape:zoom="0.8134464"
   inkscape:cx="163.80919"
   inkscape:cy="256.00949"
   inkscape:window-x="0"
   inkscape:window-y="0"
   inkscape:window-maximized="1"
   inkscape:current-layer="Capa_1"
   inkscape:document-rotation="0" />




<path
   style="fill:#cfd8dc;stroke-width:0.474116"
   d="m 280.71321,428.85585 -49.58463,-0.31681 c -2.56654,-0.0268 -5.03431,0.32993 -6.72802,0.97212 -1.70406,0.63032 -2.5004,1.4763 -2.17983,2.31762 l 21.736,53.76991 c 0.59248,1.59916 4.96845,2.73564 9.77365,2.5383 3.86712,-0.15886 6.95497,-1.14765 7.58045,-2.42742 l 27.88653,-53.46523 c 0.83039,-1.58717 -2.36317,-3.09812 -7.1329,-3.37444 -0.44205,-0.0255 -0.8888,-0.0399 -1.33738,-0.0428 z"
   id="path2" /><path
   style="fill:#d32f2f;stroke-width:0.965973"
   d="m 326.08083,266.91161 -145.6889,-2.79737 c -21.84821,2.29543 -42.15039,12.34516 -57.22406,28.32687 -21.39381,19.19354 -34.105542,46.2306 -35.23698,74.94925 -0.454311,23.66049 18.72578,41.0951 57.02532,51.82873 34.40905,8.30681 69.67523,12.53507 105.07192,12.5985 57.94133,1.09816 124.74759,-4.10513 151.92077,-30.25445 7.84533,-7.1757 12.37872,-17.27202 12.53021,-27.90272 1.17958,-60.64992 -57.43903,-106.13933 -88.39828,-106.74881 z"
   id="path4" /><path
   style="fill:#f44336;stroke-width:0.965973"
   d="m 328.31943,150.35958 -145.69029,-2.79743 c -5.68804,-0.10882 -10.38767,4.41403 -10.49826,10.10275 L 169.893,274.21626 c -0.36591,19.05626 21.09819,39.75587 82.38767,41.03447 39.94815,0.76705 63.30766,-7.4416 74.83052,-18.53024 5.51454,-4.94346 8.7875,-11.91115 9.07164,-19.31126 l 2.23792,-116.5514 c 0.10949,-5.68874 -4.41327,-10.38837 -10.10132,-10.49825 z"
   id="path6" /><path
   style="fill:#d32f2f;stroke-width:0.965973"
   d="m 385.06125,57.517588 c -3.8196,-1.671965 -8.27073,-0.876825 -11.27546,2.013375 C 357.69001,75.020278 305.60237,91.626187 256.59325,90.685167 207.58411,89.744141 156.18639,71.165556 140.68303,55.055162 c -3.93891,-4.107035 -10.46127,-4.243881 -14.56895,-0.305701 -1.9801,1.898776 -3.12121,4.50913 -3.17049,7.252489 -1.12842,59.51479 39.18206,120.36359 131.84079,122.14276 37.17471,2.67582 73.8483,-9.82299 101.65044,-34.64447 22.07529,-21.73686 34.59087,-51.366915 34.78131,-82.347879 0.0825,-4.158936 -2.34555,-7.959592 -6.15488,-9.634773 z"
   id="path8" /><path
   style="fill:#f44336;stroke-width:0.965973"
   d="m 257.9919,17.840718 c -61.70012,-1.170357 -104.8388,10.913985 -131.87835,36.934694 -4.10032,3.945844 -4.22556,10.469104 -0.27974,14.569439 21.33407,22.169369 79.82402,40.985249 130.36334,41.969989 50.53924,0.98475 109.72427,-15.615367 131.87837,-36.934691 4.10031,-3.945846 4.22557,-10.469108 0.27967,-14.569437 C 362.32045,32.756576 319.67682,19.024442 257.9919,17.840718 Z"
   id="path10" />
</svg>
