<?xml version="1.0" encoding="UTF-8" standalone="no"?>
<svg
   xmlns:dc="http://purl.org/dc/elements/1.1/"
   xmlns:cc="http://creativecommons.org/ns#"
   xmlns:rdf="http://www.w3.org/1999/02/22-rdf-syntax-ns#"
   xmlns:svg="http://www.w3.org/2000/svg"
   xmlns="http://www.w3.org/2000/svg"
   xmlns:sodipodi="http://sodipodi.sourceforge.net/DTD/sodipodi-0.dtd"
   xmlns:inkscape="http://www.inkscape.org/namespaces/inkscape"
   viewBox="0 0 448 448"
   version="1.1"
   id="svg4"
   sodipodi:docname="plus-square.svg"
   width="448"
   height="448"
   inkscape:version="1.0.1 (1.0.1+r75)"
   inkscape:export-filename="/yuneta/development/yuneta/^yuneta/yuno_gui/code/app/images/yuneta/plus-square.png"
   inkscape:export-xdpi="128"
   inkscape:export-ydpi="128">
  <metadata
     id="metadata10">
    <rdf:RDF>
      <cc:Work
         rdf:about="">
        <dc:format>image/svg+xml</dc:format>
        <dc:type
           rdf:resource="http://purl.org/dc/dcmitype/StillImage" />
        <dc:title></dc:title>
      </cc:Work>
    </rdf:RDF>
  </metadata>
  <defs
     id="defs8" />
  <sodipodi:namedview
     pagecolor="#ffffff"
     bordercolor="#666666"
     borderopacity="1"
     objecttolerance="10"
     gridtolerance="10"
     guidetolerance="10"
     inkscape:pageopacity="0"
     inkscape:pageshadow="2"
     inkscape:window-width="1920"
     inkscape:window-height="991"
     id="namedview6"
     showgrid="false"
     fit-margin-top="0"
     fit-margin-left="0"
     fit-margin-right="0"
     fit-margin-bottom="0"
     inkscape:zoom="1.5563819"
     inkscape:cx="224"
     inkscape:cy="224"
     inkscape:window-x="0"
     inkscape:window-y="0"
     inkscape:window-maximized="1"
     inkscape:current-layer="svg4" />
  <path
     d="m 341.21429,211.03571 v 28.92858 c 0,5.96651 -4.8817,10.84821 -10.84822,10.84821 H 250.8125 v 79.55357 c 0,5.96652 -4.8817,10.84821 -10.84821,10.84821 h -28.92857 c -5.96652,0 -10.84822,-4.88169 -10.84822,-10.84821 V 250.8125 h -79.55356 c -5.96652,0 -10.84822,-4.8817 -10.84822,-10.84821 v -28.92858 c 0,-5.96652 4.8817,-10.84821 10.84822,-10.84821 h 79.55356 v -79.55357 c 0,-5.96652 4.8817,-10.84822 10.84822,-10.84822 h 28.92857 c 5.96651,0 10.84821,4.8817 10.84821,10.84822 v 79.55357 h 79.55357 c 5.96652,0 10.84822,4.88169 10.84822,10.84821 z M 428,66.392857 V 384.60714 C 428,408.56362 408.56361,428 384.60714,428 H 66.392857 C 42.436384,428 23,408.56362 23,384.60714 V 66.392857 C 23,42.436384 42.436384,23 66.392857,23 H 384.60714 C 408.56361,23 428,42.436384 428,66.392857 Z M 384.60714,379.18303 V 71.816964 c 0,-2.983259 -2.44084,-5.424107 -5.4241,-5.424107 H 71.816965 c -2.98326,0 -5.424108,2.440848 -5.424108,5.424107 V 379.18303 c 0,2.98326 2.440848,5.42411 5.424108,5.42411 H 379.18304 c 2.98326,0 5.4241,-2.44085 5.4241,-5.42411 z"
     id="path2"
     style="stroke-width:0.904018" />
</svg>
