<?xml version="1.0" encoding="utf-8"?>
<!-- Generator: Adobe Illustrator 16.0.0, SVG Export Plug-In . SVG Version: 6.00 Build 0)  -->
<svg xmlns="http://www.w3.org/2000/svg" xmlns:xlink="http://www.w3.org/1999/xlink" version="1.1" id="582845393_Capa_1_grid" x="0px" y="0px" width="24px" height="24px" viewBox="0 0 24 24" style="enable-background:new 0 0 24 24;" xml:space="preserve">

<rect class="st2" width="24" height="24" style="fill:none;;"/>
<path id="582845393_shock_x5F_color_grid" class="stshockcolor" d="M7,4h4v4H7V4z M13,4h4v4h-4V4z M10,10h4v4h-4V10z M4,10h4v4H4V10z M16,10h4v4h-4V10z   M13,16h4v4h-4V16z M7,16h4v4H7V16z M1,16h4v4H1V16z M19,16h4v4h-4V16z" style="fill:#1976D2;;"/>
<path class="st1" d="M10,10h4v4h-4V10z M4,10h4v4H4V10z M16,10h4v4h-4V10z" style="opacity:0.2;fill:#FFFFFF;enable-background:new    ;;"/>
<path class="st3" d="M13,16h4v4h-4V16z M7,16h4v4H7V16z M1,16h4v4H1V16z M19,16h4v4h-4V16z" style="opacity:0.4;fill:#F4F4F4;enable-background:new    ;;"/>
</svg>
