<?xml version="1.0" encoding="UTF-8" standalone="no"?>
<svg
   xmlns:dc="http://purl.org/dc/elements/1.1/"
   xmlns:cc="http://creativecommons.org/ns#"
   xmlns:rdf="http://www.w3.org/1999/02/22-rdf-syntax-ns#"
   xmlns:svg="http://www.w3.org/2000/svg"
   xmlns="http://www.w3.org/2000/svg"
   xmlns:sodipodi="http://sodipodi.sourceforge.net/DTD/sodipodi-0.dtd"
   xmlns:inkscape="http://www.inkscape.org/namespaces/inkscape"
   version="1.1"
   id="58142323_Capa_1_grid"
   x="0px"
   y="0px"
   width="24px"
   height="24px"
   viewBox="0 0 24 24"
   style="enable-background:new 0 0 24 24;"
   xml:space="preserve"
   sodipodi:docname="save_red.svg"
   inkscape:export-filename="/yuneta/development/yuneta/^yuneta/yuno_gui/code/app/images/yuneta/save_red.png"
   inkscape:export-xdpi="128"
   inkscape:export-ydpi="128"
   inkscape:version="1.0.1 (1.0.1+r75)"><metadata
   id="metadata16"><rdf:RDF><cc:Work
       rdf:about=""><dc:format>image/svg+xml</dc:format><dc:type
         rdf:resource="http://purl.org/dc/dcmitype/StillImage" /></cc:Work></rdf:RDF></metadata><defs
   id="defs14" /><sodipodi:namedview
   pagecolor="#ffffff"
   bordercolor="#666666"
   borderopacity="1"
   objecttolerance="10"
   gridtolerance="10"
   guidetolerance="10"
   inkscape:pageopacity="0"
   inkscape:pageshadow="2"
   inkscape:window-width="1920"
   inkscape:window-height="991"
   id="namedview12"
   showgrid="false"
   inkscape:zoom="51.965613"
   inkscape:cx="12"
   inkscape:cy="10.380477"
   inkscape:window-x="0"
   inkscape:window-y="0"
   inkscape:window-maximized="1"
   inkscape:current-layer="58142323_Capa_1_grid"
   inkscape:document-rotation="0" />

<rect
   class="st2"
   width="24"
   height="24"
   style="fill:none;;"
   id="rect2" />
<path
   id="58142323_shock_x5F_color_grid"
   class="stshockcolor"
   d="M 22.209771,5.6748175 V 18.912944 c 0,1.213494 -1.039783,2.206354 -2.31063,2.206354 H 3.7247318 c -1.2812444,0 -2.3106301,-0.99286 -2.3106301,-2.206354 V 3.4684631 c 0,-1.213495 1.0293857,-2.2063545 2.3106301,-2.2063545 H 17.588511 Z"
   style="fill:#c62828;fill-opacity:1;stroke-width:1.12895" />
<path
   class="st0"
   d="M15,16c0,1.66-1.34,3-3,3h-0.05C10.311,18.971,9,17.641,9,16s1.311-2.971,2.95-3H12C13.66,13,15,14.34,15,16z"
   style="opacity:0.6;fill:#FFFFFF;;"
   id="path5" />
<rect
   x="5"
   y="3"
   class="st1"
   width="10"
   height="2"
   style="opacity:0.3;fill:#FFFFFF;;"
   id="rect7" />
<rect
   x="5"
   y="5"
   class="st0"
   width="10"
   height="4"
   style="opacity:0.6;fill:#FFFFFF;;"
   id="rect9" />
</svg>
