<?xml version="1.0" encoding="utf-8"?>
<!-- Generator: Adobe Illustrator 16.0.0, SVG Export Plug-In . SVG Version: 6.00 Build 0)  -->
<svg xmlns="http://www.w3.org/2000/svg" xmlns:xlink="http://www.w3.org/1999/xlink" version="1.1" id="583245892_Capa_1_grid" x="0px" y="0px" width="24px" height="24px" viewBox="0 0 24 24" style="enable-background:new 0 0 24 24;" xml:space="preserve">

<rect class="st2" width="24" height="24" style="fill:none;;"/>
<path id="583245892_shock_x5F_color_grid" class="stshockcolor" d="M22,6c0,1.1-0.9,2-2,2H4C3.45,8,2.95,7.78,2.59,7.41C2.22,7.05,2,6.55,2,6  c0-1.1,0.9-2,2-2h16C21.1,4,22,4.9,22,6z M20,10H4c-1.1,0-2,0.9-2,2c0,0.55,0.22,1.05,0.59,1.41C2.95,13.78,3.45,14,4,14h16  c1.1,0,2-0.9,2-2C22,10.9,21.1,10,20,10z M20,16H4c-1.1,0-2,0.9-2,2c0,0.55,0.22,1.05,0.59,1.41C2.95,19.78,3.45,20,4,20h16  c1.1,0,2-0.9,2-2S21.1,16,20,16z" style="fill:#1976D2;;"/>
<path class="st1" d="M22,18c0,1.1-0.9,2-2,2H8v-4h12C21.1,16,22,16.9,22,18z M20,10H8v4h12c1.1,0,2-0.9,2-2C22,10.9,21.1,10,20,10z   M22,6c0-1.1-0.9-2-2-2H8v4h12C21.1,8,22,7.1,22,6z" style="opacity:0.2;fill:#FFFFFF;;"/>
</svg>
