<?xml version="1.0" encoding="UTF-8" standalone="no"?>
<svg
   xmlns:dc="http://purl.org/dc/elements/1.1/"
   xmlns:cc="http://creativecommons.org/ns#"
   xmlns:rdf="http://www.w3.org/1999/02/22-rdf-syntax-ns#"
   xmlns:svg="http://www.w3.org/2000/svg"
   xmlns="http://www.w3.org/2000/svg"
   xmlns:sodipodi="http://sodipodi.sourceforge.net/DTD/sodipodi-0.dtd"
   xmlns:inkscape="http://www.inkscape.org/namespaces/inkscape"
   version="1.1"
   id="Capa_1"
   x="0px"
   y="0px"
   width="24px"
   height="24px"
   viewBox="0 0 24 24"
   style="enable-background:new 0 0 24 24;"
   xml:space="preserve"
   sodipodi:docname="topic_schema.svg"
   inkscape:export-filename="/yuneta/development/projects/^fichador/fichador-web/fichador2/code/app/images/yuneta/topic_schema.png"
   inkscape:export-xdpi="128"
   inkscape:export-ydpi="128"
   inkscape:version="1.0.1 (1.0.1+r73)"><metadata
   id="metadata12"><rdf:RDF><cc:Work
       rdf:about=""><dc:format>image/svg+xml</dc:format><dc:type
         rdf:resource="http://purl.org/dc/dcmitype/StillImage" /></cc:Work></rdf:RDF></metadata><defs
   id="defs10" /><sodipodi:namedview
   pagecolor="#ffffff"
   bordercolor="#666666"
   borderopacity="1"
   objecttolerance="10"
   gridtolerance="10"
   guidetolerance="10"
   inkscape:pageopacity="0"
   inkscape:pageshadow="2"
   inkscape:window-width="1920"
   inkscape:window-height="991"
   id="namedview8"
   showgrid="false"
   inkscape:zoom="12.271249"
   inkscape:cx="12"
   inkscape:cy="12"
   inkscape:window-x="0"
   inkscape:window-y="0"
   inkscape:window-maximized="1"
   inkscape:current-layer="Capa_1"
   inkscape:document-rotation="0" />

<rect
   class="st2"
   width="24"
   height="24"
   style="fill:none;;"
   id="rect2" />
<rect
   id="58944924_shock_x5F_color"
   x="2"
   y="2"
   class="stshockcolor"
   width="20"
   height="20"
   style="fill:#ff9037;fill-opacity:1"
   inkscape:export-xdpi="153.60001"
   inkscape:export-ydpi="153.60001" />
<path
   class="st0"
   d="M4,4h4v4H4V4z M10,4h4v4h-4V4z M16,4h4v4h-4V4z M4,10h4v4H4V10z M10,10h4v4h-4V10z M16,10h4v4h-4V10z M4,16h4v4  H4V16z M10,16h4v4h-4V16z M16,16h4v4h-4V16z"
   style="opacity:0.6;fill:#FFFFFF;;"
   id="path5" />
</svg>
