<?xml version="1.0" encoding="UTF-8" standalone="no"?>
<svg
   xmlns:dc="http://purl.org/dc/elements/1.1/"
   xmlns:cc="http://creativecommons.org/ns#"
   xmlns:rdf="http://www.w3.org/1999/02/22-rdf-syntax-ns#"
   xmlns:svg="http://www.w3.org/2000/svg"
   xmlns="http://www.w3.org/2000/svg"
   xmlns:sodipodi="http://sodipodi.sourceforge.net/DTD/sodipodi-0.dtd"
   xmlns:inkscape="http://www.inkscape.org/namespaces/inkscape"
   version="1.1"
   id="Capa_1"
   x="0px"
   y="0px"
   width="24px"
   height="24px"
   viewBox="0 0 24 24"
   style="enable-background:new 0 0 24 24;"
   xml:space="preserve"
   sodipodi:docname="topic_view.svg"
   inkscape:export-filename="/yuneta/development/projects/^fichador/fichador-web/fichador2/code/app/images/yuneta/topic_view.png"
   inkscape:export-xdpi="128"
   inkscape:export-ydpi="128"
   inkscape:version="1.0.1 (1.0.1+r73)"><metadata
   id="metadata12"><rdf:RDF><cc:Work
       rdf:about=""><dc:format>image/svg+xml</dc:format><dc:type
         rdf:resource="http://purl.org/dc/dcmitype/StillImage" /></cc:Work></rdf:RDF></metadata><defs
   id="defs10" /><sodipodi:namedview
   pagecolor="#ffffff"
   bordercolor="#666666"
   borderopacity="1"
   objecttolerance="10"
   gridtolerance="10"
   guidetolerance="10"
   inkscape:pageopacity="0"
   inkscape:pageshadow="2"
   inkscape:window-width="1920"
   inkscape:window-height="991"
   id="namedview8"
   showgrid="false"
   inkscape:zoom="33.202814"
   inkscape:cx="12"
   inkscape:cy="12"
   inkscape:window-x="0"
   inkscape:window-y="0"
   inkscape:window-maximized="1"
   inkscape:current-layer="Capa_1" />

<rect
   class="st2"
   width="24"
   height="24"
   style="fill:none;;"
   id="rect2" />
<path
   id="58944927_shock_x5F_color"
   class="stshockcolor"
   d="M23,12c0,0-2,7-11,7S1,12,1,12s2-7,11-7S23,12,23,12z"
   style="fill:#AB47BC;;" />
<path
   class="st1"
   d="M12,5C3,5,1,12,1,12s2,7,11,7s11-7,11-7S21,5,12,5z M12,17c-2.76,0-5-2.24-5-5s2.24-5,5-5s5,2.24,5,5  S14.76,17,12,17z M15,12c0,1.657-1.343,3-3,3c-1.657,0-3-1.343-3-3c0-1.657,1.343-3,3-3C13.657,9,15,10.343,15,12z"
   style="opacity:0.4;fill:#E3F2FD;;"
   id="path5" />
</svg>
