<?xml version="1.0" encoding="UTF-8" standalone="no"?>
<svg
   xmlns:dc="http://purl.org/dc/elements/1.1/"
   xmlns:cc="http://creativecommons.org/ns#"
   xmlns:rdf="http://www.w3.org/1999/02/22-rdf-syntax-ns#"
   xmlns:svg="http://www.w3.org/2000/svg"
   xmlns="http://www.w3.org/2000/svg"
   xmlns:sodipodi="http://sodipodi.sourceforge.net/DTD/sodipodi-0.dtd"
   xmlns:inkscape="http://www.inkscape.org/namespaces/inkscape"
   version="1.1"
   id="58129072_Capa_1_grid"
   x="0px"
   y="0px"
   width="24px"
   height="24px"
   viewBox="0 0 24 24"
   style="enable-background:new 0 0 24 24;"
   xml:space="preserve"
   sodipodi:docname="trash_can.svg"
   inkscape:export-filename="/yuneta/development/yuneta/^yuneta/yuno_gui/code/app/images/yuneta/trash_can.png"
   inkscape:export-xdpi="128"
   inkscape:export-ydpi="128"
   inkscape:version="1.0.1 (1.0.1+r75)"><metadata
   id="metadata12"><rdf:RDF><cc:Work
       rdf:about=""><dc:format>image/svg+xml</dc:format><dc:type
         rdf:resource="http://purl.org/dc/dcmitype/StillImage" /></cc:Work></rdf:RDF></metadata><defs
   id="defs10" /><sodipodi:namedview
   pagecolor="#ffffff"
   bordercolor="#666666"
   borderopacity="1"
   objecttolerance="10"
   gridtolerance="10"
   guidetolerance="10"
   inkscape:pageopacity="0"
   inkscape:pageshadow="2"
   inkscape:window-width="1920"
   inkscape:window-height="991"
   id="namedview8"
   showgrid="false"
   inkscape:zoom="33.202814"
   inkscape:cx="12"
   inkscape:cy="12"
   inkscape:window-x="0"
   inkscape:window-y="0"
   inkscape:window-maximized="1"
   inkscape:current-layer="58129072_Capa_1_grid" />

<rect
   class="st1"
   width="24"
   height="24"
   style="fill:none;;"
   id="rect2" />
<path
   id="58129072_shock_x5F_color_grid"
   class="stshockcolor"
   d="M19,4v2h-1v13c0,1.1-0.9,2-2,2H8c-1.1,0-2-0.9-2-2V6H5V4h3.5l1-1h5l1,1H19z"
   style="fill:#616161;;" />
<path
   class="st2"
   d="M18,8V6H6v13c0,1.1,0.9,2,2,2h8c1.1,0,2-0.9,2-2h-2V8H18z M10,19H8V8h2V19z M14,19h-2V8h2V19z"
   style="opacity:0.4;fill:#FFFFFF;;"
   id="path5" />
</svg>
