<svg width="105.46" height="103.52" enable-background="new 0 0 744.094 1052.36" version="1.1" viewBox="0 0 105.46 103.52" xmlns="http://www.w3.org/2000/svg" xmlns:xlink="http://www.w3.org/1999/xlink">
  <defs>
    <clipPath id="SVGID_2_">
      <use width="100%" height="100%" overflow="visible" xlink:href="#SVGID_1_"/>
    </clipPath>
    <clipPath id="SVGID_7_">
      <use width="100%" height="100%" overflow="visible" xlink:href="#SVGID_6_"/>
    </clipPath>
  </defs>
  <g transform="translate(-165.08 -288.67)" clip-path="url(#SVGID_2_)" display="none" enable-background="new    ">
    <g display="inline">
      <defs>
        <rect id="SVGID_4_" x="234.76" y="548.46" width="316.11" height="134.94"/>
      </defs>
      <clipPath id="SVGID_5_">
        <use width="100%" height="100%" overflow="visible" xlink:href="#SVGID_4_"/>
      </clipPath>
      <g clip-path="url(#SVGID_5_)">
        <path d="m252.16 637.23c0 3.516 1.143 5.273 3.428 5.273s4.228-0.938 5.83-2.813c1.562-1.913 2.792-4.257 3.691-7.031l8.379-39.258h17.285l-11.895 55.664c3.633-1.21 6.63-3.056 8.994-5.537 2.363-2.48 4.404-6.357 6.123-11.631h5.039c-3.047 10.313-8.203 17.109-15.469 20.391-1.992 0.899-3.907 1.582-5.742 2.051l-1.816 8.672c-1.523 7.695-4.57 13.242-9.141 16.641-3.36 2.499-7.207 3.75-11.543 3.75s-7.813-0.958-10.43-2.871c-2.618-1.914-3.926-4.98-3.926-9.199 0-7.305 6.523-13.125 19.57-17.461l1.465-6.445c-4.141 4.453-8.946 6.68-14.414 6.68-3.594 0-6.641-1.133-9.141-3.398-2.461-2.265-3.691-5.918-3.691-10.957 0-2.265 0.313-4.883 0.938-7.852l8.145-38.496h17.285l-8.613 40.781c-0.234 1.016-0.351 2.03-0.351 3.046zm7.148 22.676c-7.813 2.813-11.719 6.211-11.719 10.195 0 1.602 0.762 2.792 2.285 3.574 0.507 0.234 1.25 0.352 2.227 0.352 0.976 0 2.109-0.87 3.398-2.607 1.289-1.738 2.324-4.424 3.105-8.057l0.704-3.457z"/>
        <path d="m359.62 631.9c-5.079 14.805-13.106 22.207-24.082 22.207-7.148 0-11.114-3.788-11.895-11.367-4.688 7.579-10.605 11.367-17.754 11.367-3.594 0-6.641-1.133-9.141-3.398-2.461-2.265-3.691-5.918-3.691-10.957 0-2.265 0.313-4.883 0.938-7.852l8.145-38.496h17.285l-8.613 40.781c-0.234 1.251-0.352 2.383-0.352 3.398 0 3.281 1.191 4.922 3.574 4.922 4.219 0 7.421-3.535 9.609-10.605l8.145-38.496h17.285l-8.613 40.781c-0.352 1.368-0.527 2.774-0.527 4.219 0 2.734 1.641 4.102 4.922 4.102 4.492 0 7.734-3.535 9.727-10.605h5.038z"/>
        <path d="m400.28 637.35c0 3.438 1.465 5.156 4.395 5.156 2.695 0 4.766-0.858 6.211-2.578 1.445-1.719 2.871-4.395 4.277-8.027h5.039c-4.648 13.477-10.938 20.801-18.867 21.973-1.25 0.155-2.793 0.234-4.629 0.234s-3.652-0.391-5.449-1.172c-5-2.109-7.5-6.23-7.5-12.363 0-3.281 0.898-8.516 2.695-15.703s2.695-12.148 2.695-14.883c0-4.102-1.445-6.152-4.336-6.152s-5.469 2.285-7.734 6.855c-0.664 1.289-1.211 2.695-1.641 4.219l-8.144 38.496h-17.285l12.715-60h17.285l-1.289 6.211c3.906-4.453 8.574-6.68 14.004-6.68 3.828 0 7.012 1.055 9.551 3.164s3.809 5.235 3.809 9.375c0 4.141-0.664 8.828-1.992 14.063l-2.871 11.602c-0.626 2.539-0.939 4.609-0.939 6.21z"/>
        <path d="m465.32 631.9c-8.985 14.805-19.98 22.207-32.988 22.207-5.704 0-10.254-1.474-13.652-4.424-3.398-2.949-5.098-7.822-5.098-14.619 0-9.141 2.323-17.988 6.973-26.543 3.554-6.523 8.398-11.171 14.531-13.945 3.164-1.484 6.445-2.227 9.844-2.227 5.546 0 9.316 1.046 11.309 3.135 1.992 2.09 2.988 4.873 2.988 8.35 0 6.836-2.754 12.647-8.262 17.432s-11.953 7.412-19.336 7.881c-0.196 2.266-0.293 3.867-0.293 4.805 0 4.102 0.723 6.807 2.168 8.115 1.444 1.31 3.477 1.963 6.094 1.963 4.608 0 8.486-1.025 11.631-3.076 3.144-2.051 6.475-5.068 9.99-9.053h4.101zm-15.351-28.887c0-2.891-0.996-4.336-2.988-4.336-2.93 0.079-5.763 2.666-8.496 7.764-2.734 5.098-4.708 10.752-5.918 16.963 4.608-0.313 8.662-2.461 12.158-6.445 3.495-3.985 5.244-8.633 5.244-13.946z"/>
        <path d="m468.9 598.21h-3.984l0.996-4.805h3.926l3.633-16.582 17.754-2.402-4.102 18.984h7.207l-0.938 4.805h-7.207l-7.676 35.977c-0.391 1.523-0.586 2.93-0.586 4.219s0.283 2.335 0.85 3.135c0.565 0.801 1.591 1.201 3.076 1.201 1.484 0 2.616-0.117 3.398-0.352-2.306 6.642-5.47 10.43-9.492 11.367-1.094 0.234-2.168 0.352-3.223 0.352-4.258 0-7.324-1.298-9.199-3.896s-2.813-5.37-2.813-8.32c0-2.949 0.234-5.517 0.703-7.705l7.677-35.978z"/>
        <path d="m494.32 569.4h59.998v83.997h-59.998v-83.997zm6 72.597 20.398-30.599-20.398-30.599v61.198zm44.399-66.597h-40.799l20.399 30.599 20.4-30.599zm0 71.997-20.399-30.599-20.399 30.599h40.798zm3.599-5.4v-61.197l-20.399 30.599 20.399 30.598z"/>
      </g>
    </g>
  </g>
  <g transform="matrix(1.1575 0 0 .90471 -.31501 .19058)">
    <path transform="translate(-222.75 -581.4)" d="m258.6 663.36c-0.782 3.634-1.817 6.318-3.106 8.057-1.289 1.737-2.422 2.607-3.398 2.607-0.977 0-1.719-0.117-2.227-0.352-1.523-0.782-2.285-1.973-2.285-3.574 0-3.984 3.906-7.383 11.719-10.195l-0.703 3.457zm-6.095-29.18 8.613-40.781h-17.285l-8.144 38.496c-0.625 2.969-0.938 5.587-0.938 7.852 0 5.038 1.231 8.692 3.691 10.957 2.5 2.266 5.547 3.398 9.141 3.398 5.468 0 10.273-2.227 14.414-6.68l-1.465 6.444c-13.047 4.337-19.57 10.157-19.57 17.462 0 4.219 1.308 7.285 3.926 9.199 2.617 1.913 6.094 2.871 10.43 2.871 4.335 0 8.183-1.251 11.542-3.75 4.571-3.398 7.618-8.945 9.141-16.641l1.816-8.672c1.836-0.47 3.75-1.151 5.743-2.052 7.265-3.28 12.422-10.077 15.468-20.39h-5.039c-1.719 5.273-3.76 9.15-6.123 11.631s-5.361 4.327-8.994 5.537l11.895-55.664h-17.285l-8.379 39.258c-0.899 2.774-2.13 5.118-3.692 7.031-1.602 1.875-3.545 2.813-5.83 2.813s-3.428-1.759-3.428-5.273c0-1.015 0.118-2.029 0.352-3.046z" clip-path="url(#SVGID_7_)" fill="none" stroke="#000" stroke-miterlimit="10" stroke-width="20"/>
    <path d="m29.344 54.23c0 3.516 1.143 5.273 3.428 5.273s4.228-0.938 5.83-2.813c1.562-1.913 2.792-4.257 3.691-7.031l8.379-39.258h17.285l-11.895 55.664c3.633-1.21 6.63-3.056 8.994-5.537 2.363-2.48 4.404-6.357 6.123-11.631h5.039c-3.047 10.313-8.203 17.109-15.469 20.391-1.992 0.899-3.907 1.582-5.742 2.051l-1.816 8.672c-1.523 7.695-4.57 13.242-9.141 16.641-3.36 2.499-7.207 3.75-11.543 3.75s-7.813-0.958-10.43-2.871c-2.618-1.914-3.926-4.98-3.926-9.199 0-7.305 6.523-13.125 19.57-17.461l1.465-6.445c-4.141 4.453-8.946 6.68-14.414 6.68-3.594 0-6.641-1.133-9.141-3.398-2.461-2.265-3.691-5.918-3.691-10.957 0-2.265 0.313-4.883 0.938-7.852l8.145-38.496h17.285l-8.613 40.781c-0.234 1.016-0.351 2.031-0.351 3.046zm7.148 22.676c-7.813 2.813-11.719 6.211-11.719 10.195 0 1.602 0.762 2.792 2.285 3.574 0.507 0.234 1.25 0.352 2.227 0.352 0.976 0 2.109-0.87 3.398-2.607 1.289-1.738 2.324-4.424 3.105-8.057l0.704-3.457z" fill="#d1eefc"/>
  </g>
</svg>
